<svg xmlns="http://www.w3.org/2000/svg" width="152" height="152" viewBox="0 0 512 512">
  <defs>
    <clipPath id="card">
      <rect x="64" y="128" width="384" height="272" rx="24"/>
    </clipPath>
  </defs>

  <rect width="512" height="512" fill="#f6f8fc"/>

  <rect x="64" y="128" width="384" height="272" rx="24" fill="#f1f3f4" stroke="#dadce0" stroke-width="4"/>

  <rect x="88" y="200" width="156" height="88" rx="8" fill="#EA4335"/>
  <rect x="268" y="200" width="156" height="88" rx="8" fill="#4285F4"/>
  <rect x="88" y="300" width="156" height="76" rx="8" fill="#FBBC04"/>
  <rect x="268" y="300" width="156" height="76" rx="8" fill="#34A853"/>

  <rect x="104" y="224" width="80" height="6" rx="3" fill="#fff" opacity="0.6"/>
  <rect x="104" y="240" width="60" height="6" rx="3" fill="#fff" opacity="0.4"/>
  <rect x="104" y="256" width="100" height="6" rx="3" fill="#fff" opacity="0.3"/>
  <rect x="284" y="224" width="80" height="6" rx="3" fill="#fff" opacity="0.6"/>
  <rect x="284" y="240" width="60" height="6" rx="3" fill="#fff" opacity="0.4"/>
  <rect x="284" y="256" width="100" height="6" rx="3" fill="#fff" opacity="0.3"/>
  <rect x="104" y="320" width="80" height="6" rx="3" fill="#fff" opacity="0.6"/>
  <rect x="104" y="336" width="60" height="6" rx="3" fill="#fff" opacity="0.4"/>
  <rect x="284" y="320" width="80" height="6" rx="3" fill="#fff" opacity="0.6"/>
  <rect x="284" y="336" width="60" height="6" rx="3" fill="#fff" opacity="0.4"/>

  <path d="M64 128 L256 280 L448 128 Z" fill="#f1f3f4"/>
  <path d="M64 128 L256 280 L448 128" fill="none" stroke="#1a73e8" stroke-width="16" stroke-linecap="butt" stroke-linejoin="round" clip-path="url(#card)"/>
</svg>
